# written by convert_mb_to_amc()
:FULLY-SPECIFIED
:DEGREES
16
upperback -2.988080 -2.704270 -0.101614
rfoot -4.149870 -24.826500
lradius 20.695000
lthumb 11.356900 46.283798
rradius 27.426399
lwrist -20.506399
rhand -24.475800 -25.811701
rhumerus -40.755199 -5.713480 -83.106201
lowerneck -5.333320 -1.067700 0.345942
lhand -14.800800 16.611401
ltibia 36.294899
head 3.395920 -0.753140 0.551261
rwrist 24.235800
lfingers 7.125020
rtoes 10.137200
lowerback -0.353737 -2.028860 3.385070
rfingers 7.125020
lclavicle 0.000000 0.000000
upperneck 7.569180 -1.676420 2.110230
rfemur -15.494700 14.555600 5.151400
thorax -3.037080 -1.455060 -1.931630
rclavicle 0.000000 0.000000
rtibia 35.688301
lfoot -26.354200 11.065300
lhumerus -37.716801 7.981500 73.609100
rthumb 2.017840 -55.781898
root 39.725922 18.711863 -2.472997 77.881302 -83.123398 -73.279404
ltoes 14.053400
lfemur -16.461100 -20.544800 -10.382800
17
upperback -3.067173 -3.188250 0.140484
rfoot -16.453722 -20.434443
lradius 20.213902
lthumb 11.728536 45.746269
rradius 27.261826
lwrist -21.803167
rhand -20.559526 -22.746817
rhumerus -40.918350 -5.631437 -83.885696
lowerneck -5.098960 1.105583 2.233926
lhand -14.415375 16.094652
ltibia 36.026966
head 3.181741 0.679923 -1.353818
rwrist 22.251089
lfingers 7.125020
rtoes -13.695282
lowerback -1.234142 -2.365806 3.783434
rfingers 7.125020
lclavicle -0.000000 -0.000000
upperneck 6.947613 1.512052 -3.144297
rfemur -13.295351 15.020288 8.201222
thorax -2.661893 -1.702509 -1.929044
rclavicle -0.000000 -0.000000
rtibia 34.414417
lfoot -28.806456 13.929484
lhumerus -36.841328 8.747840 71.904129
rthumb 5.799606 -52.647213
root 39.495300 18.522209 -4.175023 102.794731 -85.216171 -97.893929
ltoes 8.513579
lfemur -14.895383 -21.943403 -7.261189
18
upperback -2.616035 -3.489082 0.097307
rfoot -25.814417 -22.362417
lradius 22.298517
lthumb 11.609229 46.082420
rradius 26.705667
lwrist -19.980591
rhand -16.745874 -20.090721
rhumerus -38.904392 -4.011188 -84.887215
lowerneck -4.137378 2.575515 2.854190
lhand -14.539124 16.424000
ltibia 36.545223
head 2.151651 1.643701 -2.168787
rwrist 15.958525
lfingers 7.125020
rtoes -2.011426
lowerback -0.697533 -2.617607 5.252157
rfingers 7.125020
lclavicle -0.000000 -0.000000
upperneck 3.979765 3.512442 -5.552386
rfemur -13.989250 13.865752 13.682323
thorax -2.614116 -1.873643 -2.770492
rclavicle -0.000000 -0.000000
rtibia 34.188602
lfoot -22.944664 14.270751
lhumerus -31.793844 9.583535 75.884415
rthumb 9.480509 -49.857441
root 39.641571 18.495165 -6.295483 127.565430 -86.639252 -121.669022
ltoes -2.527194
lfemur -16.872143 -22.401943 -1.216178
19
upperback -2.091784 -4.379900 -0.076777
rfoot -27.172277 -23.533989
lradius 33.794403
lthumb 12.050923 45.477489
rradius 28.240656
lwrist -8.703633
rhand -17.879789 -19.608770
rhumerus -36.310059 -3.713408 -81.596970
lowerneck -2.862568 3.942764 3.737829
lhand -14.081090 15.844506
ltibia 37.439579
head 1.765906 2.556802 -2.843180
rwrist 14.190135
lfingers 7.125020
rtoes 5.183662
lowerback -1.690080 -3.227419 6.350742
rfingers 7.125020
lclavicle -0.000000 -0.000000
upperneck 2.944848 5.336380 -7.221498
rfemur -16.095209 14.720487 16.125355
thorax -1.695893 -2.303589 -3.616101
rclavicle -0.000000 -0.000000
rtibia 33.316345
lfoot -11.109780 20.432039
lhumerus -32.350792 -1.849300 90.286446
rthumb 8.386354 -49.422279
root 39.934902 18.724455 -8.012531 179.718262 -88.348839 -172.222168
ltoes 7.585274
lfemur -21.855394 -22.847412 2.544543
20
upperback -1.873251 -5.254080 -0.306005
rfoot -27.480032 -23.438477
lradius 34.534100
lthumb 17.971127 43.229549
rradius 26.368427
lwrist -9.872326
rhand -22.501514 -19.642981
rhumerus -36.208332 -8.328424 -74.155304
lowerneck -3.351440 4.444484 4.260653
lhand -7.935194 14.040900
ltibia 38.370060
head 2.209936 2.871058 -3.311317
rwrist 13.862492
lfingers 7.125020
rtoes 8.387917
lowerback -1.847040 -3.875414 5.980550
rfingers 7.125020
lclavicle -0.000000 0.000000
upperneck 3.663285 6.056065 -8.398211
rfemur -15.727252 12.709779 17.751438
thorax -1.466239 -2.722914 -3.653476
rclavicle -0.000000 0.000000
rtibia 33.811180
lfoot -3.000534 24.587818
lhumerus -33.995613 -14.037050 96.922104
rthumb 3.924502 -49.586548
root 40.075653 18.804523 -9.070249 281.992157 -88.090401 -275.205383
ltoes 25.983377
lfemur -24.326174 -18.384739 1.929590
